<?xml version="1.0" encoding="UTF-8"?>
<svg width="175px" height="76px" viewBox="0 0 175 76" version="1.1" xmlns="http://www.w3.org/2000/svg" xmlns:xlink="http://www.w3.org/1999/xlink">
    <!-- Generator: sketchtool 64 (101010) - https://sketch.com -->
    <title>D70E3BF9-2448-4F52-9614-03776655C7C5</title>
    <desc>Created with sketchtool.</desc>
    <g id="Page-1" stroke="none" stroke-width="1" fill="none" fill-rule="evenodd">
        <g id="landing-almanza-2" transform="translate(-169.000000, -6610.000000)" fill-rule="nonzero">
            <g id="footer" transform="translate(0.000000, 6582.000000)">
                <g id="logo" transform="translate(169.000000, 28.000000)">
                    <path d="M33.3242945,63.0055943 L30,63.0055943 L30,63.3734265 L30.2548626,63.3734265 C30.497861,63.3603521 30.7079511,63.542195 30.7313448,63.7858444 L30.7313448,69.1584235 C30.7253242,69.4187686 30.5137491,69.626644 30.2548626,69.6265735 L30,69.6265735 L30,69.9944057 L33.3242945,69.9944057 C34.6122135,70.0676039 35.8346946,69.4180452 36.5005834,68.3067017 C37.1664722,67.1953583 37.1664722,65.8046417 36.5005834,64.6932983 C35.8346946,63.5819548 34.6122135,62.9323961 33.3242945,63.0055943 L33.3242945,63.0055943 Z M35.8950822,66.5055732 C35.9840293,67.2446891 35.7533604,67.986661 35.2616381,68.5431159 C34.7699157,69.0995709 34.0644314,69.4169918 33.3242945,69.4148027 L31.5624184,69.4148027 L31.5624184,63.5629158 L33.3242945,63.5629158 C34.065454,63.5734374 34.7673581,63.8998474 35.2554637,64.4609771 C35.7435693,65.0221068 35.972018,65.7652371 35.8840012,66.5055732 L35.8950822,66.5055732 Z" id="Shape" fill="#005051"></path>
                    <path d="M40.6111111,66.7522282 C40.4647542,67.2491901 39.9802923,67.5822808 39.4444444,67.5543672 L38.3055556,67.5543672 L38.3055556,65.771836 L39.5740741,65.771836 C39.6308384,65.7712751 39.6850227,65.7946199 39.7224043,65.8357424 C39.7597858,65.8768649 39.7766311,65.9316583 39.7685185,65.9857398 L39.7685185,66.1907308 L40.0740741,66.1907308 L40.0740741,64.942959 L39.7685185,64.942959 L39.7685185,65.1390374 C39.7769131,65.1970826 39.7578941,65.2556992 39.7166722,65.2988284 C39.6754503,65.3419576 39.6163474,65.3650774 39.5555556,65.3618538 L38.3055556,65.3618538 L38.3055556,63.6327986 L39.8518519,63.6327986 C39.9304415,63.6301038 40.0065351,63.6595995 40.0612521,63.7139673 C40.1159691,63.768335 40.1441814,63.8424794 40.1388889,63.9180036 L40.1388889,64.1319073 L40.4444444,64.1319073 L40.4444444,63 L40.2962963,63.0623886 C40.019799,63.1410737 39.7327659,63.1801144 39.4444444,63.1782531 L37,63.1782531 L37,63.4723708 L37.212963,63.4723708 C37.2995677,63.464959 37.3855007,63.4923539 37.4503884,63.5480603 C37.515276,63.6037667 37.5533399,63.6828239 37.5555556,63.7664884 L37.5555556,67.402852 C37.5531958,67.4872099 37.5154296,67.5670484 37.4508756,67.6241478 C37.3863216,67.6812471 37.3004881,67.7107351 37.212963,67.7058824 L37.0185185,67.7058824 L37.0185185,68 L40.4537037,68 L41,66.6898396 L40.6851852,66.6898396 L40.6111111,66.7522282 Z" id="Path" fill="#005051"></path>
                    <path d="M51.5708029,65.5803213 C51.3149759,66.6552631 50.3118183,67.3955235 49.189781,67.3373494 L47.2583942,67.3373494 L47.2583942,59.1445783 C47.2639865,58.7215373 47.6146437,58.3814904 48.0452555,58.3815261 L48.3416058,58.3815261 L48.3416058,58 L45,58 L45,58.3815261 L45.3065693,58.3815261 C45.7331958,58.3869353 46.0777061,58.7254172 46.0832117,59.1445783 L46.0832117,66.8554217 C46.0859881,67.0586197 46.0050554,67.254294 45.8588005,67.3979896 C45.7125456,67.5416853 45.5133864,67.6212018 45.3065693,67.6184739 L45,67.6184739 L45,68 L51.1313869,68 L52,65.4698795 L51.6014599,65.4698795 L51.5708029,65.5803213 Z" id="Path" fill="#005051"></path>
                    <path d="M58.5722802,65.6056009 L58.5722802,65.6791132 C58.2963294,66.6542645 57.3873482,67.3078659 56.3815201,67.2543757 L54.295082,67.2543757 L54.295082,60.050175 C54.3281385,59.6665586 54.6534658,59.3759631 55.0357675,59.3885648 L55.3278689,59.3885648 L55.3278689,59 L52,59 L52,59.3990665 L52.3025335,59.3990665 C52.6848353,59.3864648 53.0101625,59.6770603 53.0432191,60.0606768 L53.0432191,66.949825 C53.0208203,67.3243839 52.7063894,67.6129824 52.3338301,67.6009335 L52.0104322,67.6009335 L52.0104322,68 L58.1028316,68 L59,65.6581097 L58.5722802,65.6056009 Z" id="Path" fill="#005051"></path>
                    <path d="M66.7046632,67.7214612 L63.119171,59 L62.7979275,59 L62.7979275,59.1255708 C62.6633101,59.6696589 62.4793079,60.1974345 62.2487047,60.7009132 L59.2746114,67.7328767 C59.103885,68.2074776 58.7007056,68.5317011 58.238342,68.56621 L58,68.56621 L58,69 L60.984456,69 L60.984456,68.56621 L60.7668394,68.56621 C60.6233219,68.5644186 60.4889471,68.4882903 60.4041451,68.3607306 C60.3099746,68.1764583 60.3099746,67.9513956 60.4041451,67.7671233 L61.1606218,65.7808219 L64.6321244,65.7808219 L65.388601,67.8013699 C65.4683939,67.9814762 65.4683939,68.1920398 65.388601,68.3721461 C65.3029415,68.4909854 65.1739683,68.5620237 65.0362694,68.56621 L64.7979275,68.56621 L64.7979275,69 L68,69 L68,68.56621 L67.7098446,68.56621 C67.2565648,68.5171442 66.8673891,68.190083 66.7046632,67.7214612 L66.7046632,67.7214612 Z M64.3316062,64.9817352 L61.4300518,64.9817352 L62.9430052,61.1803653 L64.3316062,64.9817352 Z" id="Shape" fill="#005051"></path>
                    <path d="M75.8946322,59.6487696 L76.277336,59.6487696 C76.6419068,59.6352492 76.9535672,59.9148323 76.9880716,60.2863535 L76.9880716,66.4161074 L69.333996,59 L68.9622266,59 L68.9622266,59.1565996 C69.0504817,59.7901684 69.0943312,60.4293827 69.0934394,61.0693512 L69.0934394,67.7024609 C69.0877306,67.8893902 69.0096192,68.0663316 68.8763098,68.1943125 C68.7430005,68.3222933 68.5654279,68.3908158 68.3827038,68.3847875 L68,68.3847875 L68,68.8098434 L71.138171,68.8098434 L71.138171,68.3847875 L70.7554672,68.3847875 C70.379044,68.3974459 70.0624629,68.0985013 70.0447316,67.7136465 L70.0447316,61.5167785 L77.6988072,69 L78.0487078,69 L78.0487078,68.8434004 C77.9467814,68.1961166 77.8955913,67.5415343 77.8956262,66.885906 L77.8956262,60.2975391 C77.9352529,59.9225203 78.2486495,59.6407819 78.6172962,59.6487696 L79,59.6487696 L79,59.2796421 L75.8946322,59.2796421 L75.8946322,59.6487696 Z" id="Path" fill="#005051"></path>
                    <path d="M84.6436928,59.0089891 C81.9342831,59.2026584 79.8750523,61.524876 80.0059054,64.2390738 C80.1367585,66.9532717 82.4098233,69.0664675 85.1252884,68.9984009 C87.8407535,68.9303344 90.0051731,66.7059074 90,63.9885597 C89.9811386,62.6070255 89.3981223,61.2933489 88.3864092,60.3527915 C87.3746961,59.4122341 86.022377,58.9266911 84.6436928,59.0089891 Z M88.585743,63.9885597 C88.4226654,66.1273329 86.5849721,67.7461472 84.4435613,67.6373858 C82.3021505,67.5286244 80.6377968,65.7319424 80.692089,63.587644 C80.7463812,61.4433457 82.4995239,59.7332584 84.6436928,59.7330877 C85.7422919,59.7396238 86.7892101,60.2006664 87.5359568,61.0067849 C88.2827034,61.8129034 88.6626965,62.892222 88.585743,63.9885597 Z" id="Shape" fill="#005051"></path>
                    <path d="M98.7710372,63.9755254 L99.1369863,63.9755254 C99.3845401,63.9755254 99.7827789,64.0499277 99.7827789,64.528228 L99.7827789,67.0791629 C98.8922559,67.8586475 97.7438072,68.2896121 96.553816,68.290857 C94.0890411,68.290857 92.4315068,66.3457691 92.4315068,63.4865962 C92.4315068,60.6274234 94.0890411,58.6610777 96.553816,58.6610777 C98.2485784,58.4947821 99.8106433,59.5804632 100.22407,61.2120126 L100.22407,61.3076727 L100.59002,61.3076727 L100.25636,59.0118312 L100.25636,59.0118312 C99.1545026,58.3209217 97.8693752,57.9694244 96.5645793,58.0020862 C93.491347,58.0020862 91,60.4623437 91,63.4972251 C91,66.5321066 93.491347,68.9923641 96.5645793,68.9923641 C98.2698914,69.0831877 99.9155892,68.3595758 100.988258,67.0472762 L100.988258,67.0472762 L100.988258,64.5175991 C100.973549,64.3776411 101.020614,64.23821 101.117417,64.1349589 C101.249836,64.0183735 101.424991,63.9607172 101.601761,63.9755254 L102,63.9755254 L102,63.5716274 L98.7710372,63.5716274 L98.7710372,63.9755254 Z" id="Path" fill="#005051"></path>
                    <path d="M118.74729,67.7161724 L115.194524,59 L114.876212,59 L114.876212,59.1254946 C114.762894,59.658439 114.586818,60.1724539 114.352539,60.6542474 L114.352539,60.6542474 L114.352539,60.6542474 L111.40559,67.6819466 C111.241897,68.1159936 110.889025,68.4261995 110.471192,68.503366 C109.814033,68.503366 109.444381,68.0584305 108.889903,67.3625057 C108.335425,66.666581 107.65773,65.6512153 107.65773,65.6398067 C107.40425,65.2227101 107.1079,64.8398428 106.774672,64.4989465 C107.94762,64.2648377 108.807836,63.1418191 108.828294,61.8179249 C108.828294,60.1522689 107.678266,59.114086 105.809469,59.114086 L102.123217,59.114086 L102.123217,59.5476129 L102.318311,59.5476129 C102.673682,59.5345085 102.97398,59.8378282 102.996007,60.2321291 L102.996007,67.7503982 C102.990645,67.9440781 102.916211,68.1274467 102.789099,68.2601173 C102.661988,68.3927879 102.492624,68.4638786 102.318311,68.4577316 L102,68.4577316 L102,68.8912585 L105.162578,68.8912585 L105.162578,68.4577316 L104.844267,68.4577316 C104.667231,68.4638771 104.495257,68.391584 104.36622,68.2567741 C104.237183,68.1219643 104.161667,67.9356947 104.156303,67.7389896 L104.156303,59.9811398 L104.371934,59.9811398 C104.669709,59.9811398 105.162578,59.9811398 105.69652,59.9811398 C106.153014,59.9392004 106.604192,60.1136196 106.938662,60.4613345 C107.273132,60.8090493 107.459723,61.2976543 107.452367,61.8065163 C107.466449,62.0947799 107.438713,62.3836838 107.370222,62.6621615 C106.990302,63.8942905 106.18939,63.9171077 105.409013,63.9399249 L104.443811,63.9399249 L104.443811,64.3620432 L104.567028,64.3620432 C104.988021,64.3620432 105.429549,64.6928927 105.912151,65.3774089 L106.466629,66.2330541 C106.836281,66.8263014 107.216201,67.4309574 107.308614,67.556452 C107.947288,68.5229114 108.983178,69.0640285 110.060468,68.9939359 L113.048488,68.9939359 L113.048488,68.560409 L112.82259,68.560409 C112.682286,68.5627107 112.550634,68.485271 112.473474,68.3550542 C112.384025,68.1697922 112.384025,67.9470688 112.473474,67.7618068 L113.223046,65.77671 L116.662864,65.77671 L117.412436,67.7960326 C117.496437,67.9747231 117.496437,68.1877723 117.412436,68.3664628 C117.324359,68.4869932 117.19277,68.5580073 117.053052,68.560409 L116.816885,68.560409 L116.816885,68.9939359 L120,68.9939359 L120,68.560409 L119.763833,68.560409 C119.304218,68.5280806 118.905316,68.1967934 118.74729,67.7161724 L118.74729,67.7161724 Z M116.365088,64.9781078 L113.479749,64.9781078 L114.948089,61.1334087 L116.365088,64.9781078 Z" id="Shape" fill="#005051"></path>
                    <path d="M127.844708,59.6487696 L128.214639,59.6487696 C128.579604,59.6348121 128.893047,59.9131101 128.93274,60.2863535 L128.93274,66.4161074 L121.316518,59 L120.946588,59 L120.946588,59.1565996 C121.038566,59.7935935 121.085836,60.4365666 121.088032,61.0805369 L121.088032,67.7136465 C121.070439,68.1002246 120.757194,68.4024429 120.380811,68.3959732 L120,68.3959732 L120,68.8210291 L123.122651,68.8210291 L123.122651,68.3959732 L122.74184,68.3959732 C122.36945,68.4027009 122.05784,68.1069874 122.034619,67.7248322 L122.034619,61.5167785 L129.705242,69 L130.053412,69 L130.053412,68.8434004 C129.965173,68.1947297 129.917926,67.5408607 129.911968,66.885906 L129.911968,60.2975391 C129.946085,59.9242554 130.254569,59.6412671 130.619189,59.6487696 L131,59.6487696 L131,59.2796421 L127.888229,59.2796421 L127.844708,59.6487696 Z" id="Path" fill="#005051"></path>
                    <path d="M136.107066,59 L131.010707,59 L131.010707,59.3990665 L131.321199,59.3990665 C131.506586,59.3905142 131.687581,59.4560878 131.822788,59.5807899 C131.957995,59.7054921 132.035849,59.8786558 132.038544,60.0606768 L132.038544,66.9393232 C132.026889,67.3122076 131.712196,67.6068481 131.331906,67.6009335 L131,67.6009335 L131,68 L136.09636,68 C139.115632,68 141,66.277713 141,63.5052509 C141,60.7327888 139.126338,59 136.107066,59 Z M139.683084,63.5052509 C139.683084,65.8471412 138.312634,67.3068845 136.107066,67.3068845 L133.269807,67.3068845 L133.269807,59.6406068 L136.107066,59.6406068 C138.312634,59.6406068 139.683084,61.1003501 139.683084,63.4527421 L139.683084,63.5052509 Z" id="Shape" fill="#005051"></path>
                    <path d="M147.550075,66.4773756 L147.550075,66.5565611 C147.298942,67.6212264 146.376581,68.3369108 145.363229,68.2533937 L143.218236,68.2533937 L143.218236,64.520362 L145.603886,64.520362 C145.727159,64.5259768 145.84289,64.5860757 145.923998,64.6865954 C146.005105,64.7871151 146.044472,64.9192342 146.032885,65.0520362 L146.032885,65.3914027 L146.440957,65.3914027 L146.440957,62.9140271 L146.032885,62.9140271 L146.032885,63.2533937 C146.045214,63.3940763 146.000345,63.5336014 145.90995,63.6356727 C145.819556,63.737744 145.692572,63.7922706 145.562033,63.7850679 L143.218236,63.7850679 L143.218236,60.0520362 L146.095665,60.0520362 C146.261244,60.0486452 146.420673,60.1198387 146.535775,60.2485692 C146.650876,60.3772996 146.711287,60.5519752 146.702541,60.7307692 L146.702541,61.1040724 L147.110613,61.1040724 L147.110613,59 L146.943199,59.0678733 C146.428167,59.2201008 145.897137,59.2999438 145.363229,59.3054299 L141,59.3054299 L141,59.7352941 L141.324365,59.7352941 C141.504484,59.7197102 141.682623,59.784746 141.817129,59.9151942 C141.951635,60.0456425 142.030714,60.2300653 142.035874,60.4253394 L142.035874,67.8687783 C142.027739,68.0638636 141.948156,68.2474369 141.814678,68.3790099 C141.681201,68.510583 141.504794,68.579347 141.324365,68.5701357 L141,68.5701357 L141,69 L147.110613,69 L148,66.4773756 L147.550075,66.4773756 Z" id="Path" fill="#005051"></path>
                    <path d="M33,56.6339041 C26.9486041,58.1087359 23.4517766,51.1574304 21.2845812,45.8769135 L16.4267132,34.0782584 C16.3220178,33.8410477 16.2173223,33.6141505 16.1230964,33.3872533 C15.1853385,30.9090578 13.5646887,28.7375371 11.4432107,27.1166394 C9.29695431,25.7140021 6.60628173,25.4974184 3.18274112,27.2507151 L3.25602792,27.5807474 C7.00412437,26.2606181 9.09803299,28.9627577 10.4904822,32.1393186 L3.06757614,48.7853232 C2.54490267,49.8377891 1.48126563,50.5257687 0.293147208,50.5798739 L0,50.5798739 L0,50.9099062 L7.14022843,50.9099062 L7.14022843,50.5901874 L6.84708122,50.5901874 C6.33801093,50.6105766 5.85773408,50.3574844 5.59241202,49.9290125 C5.32708996,49.5005407 5.3184331,48.9640479 5.56979695,48.5274855 L7.30774112,44.4020816 L15.1808376,44.4020816 L16.1545051,46.9495185 L16.248731,47.1970427 C20.007297,56.9020553 27.2312817,59.8207785 33,56.9433093 L33,56.6339041 Z M7.87309645,43.0406983 L11.4432107,34.5836204 L11.4432107,34.5836204 C11.757297,35.4293282 12.0295051,36.233782 12.3121827,36.9557276 L14.6259518,43.0303848 L7.87309645,43.0406983 Z" id="Shape" fill="#005051"></path>
                    <path d="M46,45.3325843 L44.5535714,52 L28,52 L28,51.6692135 L28.4017857,51.6692135 C29.5112863,51.6692135 30.4107143,50.7435999 30.4107143,49.6017978 L30.4107143,31.3982022 C30.4107143,30.2564001 29.5112863,29.3307865 28.4017857,29.3307865 L28,29.3307865 L28,29 L37.703125,29 L37.703125,29.3307865 L37.3013393,29.3307865 C36.1918387,29.3307865 35.2924107,30.2564001 35.2924107,31.3982022 L35.2924107,50.5941573 L39.4308036,50.5941573 C42.625,50.5941573 44.6941964,48.5267416 45.6886161,45.291236 L46,45.3325843 Z" id="Path" fill="#005051"></path>
                    <path d="M75.0786662,49.0929734 C75.2275197,50.2402312 76.2672117,51.092824 77.482033,51.0638389 L78,51.0638389 L78,51.3791774 L68.1068307,51.3791774 L68.1068307,51.0835476 L68.6247977,51.0835476 C69.3663194,51.0463563 69.9387274,50.4491589 69.9093558,49.743359 L68.604079,38.3813196 L62.3884752,48.5312768 C61.7138477,49.5902281 61.2798009,50.7718242 61.1142765,52 L60.8034963,52 L52.3813532,38.4601542 L51.0967951,49.7335047 C51.0799244,50.0733578 51.2058679,50.4056354 51.446848,50.6570516 C51.6878281,50.9084678 52.0240483,51.0583689 52.3813532,51.0736932 L52.8993202,51.0736932 L52.8993202,51.3693231 L46,51.3693231 L46,51.0539846 L46.517967,51.0539846 C47.7380902,51.0972205 48.7865168,50.237465 48.9213338,49.0831191 L51.6561994,29 L51.9566203,29 L62.1709291,45.0132819 L71.9708644,29.0492716 L72.2712852,29.0492716 L75.0786662,49.0929734 Z" id="Path" fill="#005051"></path>
                    <path d="M100.104793,49.8296199 C100.575471,50.9111321 101.597682,51.62653 102.746548,51.6784622 L103,51.6784622 L103,52 L93.095857,52 L93.095857,51.6784622 L93.3688058,51.6784622 C93.8396908,51.6892353 94.2807671,51.441679 94.5275056,51.0281361 C94.774244,50.6145932 94.7895945,50.0971611 94.567831,49.668851 L93.037368,45.7199651 L85.7652315,45.7199651 L84.1860276,49.668851 C83.9460731,50.0917603 83.9498595,50.6161066 84.195895,51.0352872 C84.4419305,51.4544678 84.8907678,51.7012751 85.3655565,51.6784622 L85.6385053,51.6784622 L85.6385053,52 L79,52 L79,51.6784622 L79.2729488,51.6784622 C80.3993263,51.6226216 81.4039845,50.9309573 81.885459,49.8798602 L89.0406174,33.1900393 C89.6847243,31.8493144 90.197419,30.4456797 90.5710804,29 L90.8440292,29 L100.104793,49.8296199 Z M92.5597076,44.3835736 L89.528026,36.54609 L86.3501219,44.3835736 L92.5597076,44.3835736 Z" id="Shape" fill="#005051"></path>
                    <path d="M132,29.4969749 L132,29.8150389 L131.400078,29.8150389 C130.315474,29.8137128 129.420674,30.6446554 129.366445,31.7035436 L129.366445,48.0242005 C129.358593,49.3583026 129.484603,50.6899421 129.742667,52 L129.44779,52 L113.158389,36.852204 L113.158389,49.3859118 C113.202074,50.4526266 114.099893,51.29515 115.192022,51.2942956 L115.791944,51.2942956 L115.791944,51.6123596 L106,51.6123596 L106,51.2942956 L106.599922,51.2942956 C107.692051,51.29515 108.58987,50.4526266 108.633555,49.3859118 L108.633555,32.9757995 C108.649156,31.6413804 108.523073,30.3089802 108.257333,29 L108.470864,29 L124.73993,44.187554 L124.73993,31.7333621 C124.701572,30.6627388 123.802222,29.8143825 122.706296,29.8150389 L122.106375,29.8150389 L122.106375,29.4969749 L132,29.4969749 Z" id="Path" fill="#005051"></path>
                    <path d="M167.787031,56.6469038 C166.569541,57.1256743 165.29222,57.4202918 163.994161,57.5217391 C163.659496,57.5217391 163.31469,57.5217391 162.980025,57.5217391 C161.909579,57.5452792 160.838841,57.4924542 159.775353,57.3636364 C159.339275,57.3636364 158.893055,57.2582345 158.446835,57.1949934 C153.923786,56.5098814 148.518439,54.886693 141.855562,53.0632411 L140.334358,52.7997365 L152.341733,29.4637681 L152.341733,29.168643 C151.911031,30.1158282 151.040844,30.7652489 150.039644,30.886693 L139.796865,30.886693 C138.08344,30.6338172 136.445218,29.9894749 135,29 L135,34.4492754 C135,32.3939394 137.464352,33.2371542 139.452059,33.2371542 L147.240627,33.2371542 L135.770744,53.4953887 C141.328211,53.5797101 150.485864,60.3254282 158.446835,61 C158.893055,61 159.339275,61 159.775353,61 C160.864244,60.9885186 161.945012,60.8036767 162.980025,60.4519104 C163.324831,60.3359684 163.669637,60.2094862 163.994161,60.0619236 C165.552451,59.354107 166.925755,58.2700737 168,56.8998682 L167.787031,56.6469038 Z M135.405655,53.4848485 L135.405655,54.085639 L135.750461,53.4848485 L135.395513,53.4848485 L135.405655,53.4848485 Z" id="Shape" fill="#005051"></path>
                    <path d="M165.536341,51.9669799 L175,51.9669799 C173.954675,52.1406624 172.916536,51.6179014 172.413534,50.6645492 L162.93985,30 L162.609023,30 C162.43302,30.6525687 162.16989,31.277192 161.827068,31.8562201 C161.486216,32.5023077 161.145363,33.1073739 161.045113,33.3329918 L158.659148,38.3991394 L157.345865,41.4757472 L153.676692,50.0389723 C153.188283,51.1305605 152.168202,51.8731363 151,51.9874906 L157.265664,51.9874906 C156.443609,51.9874906 155.521303,50.2851009 156.042607,48.9826703 L157.345865,44.9933355 L157.676692,43.9677995 L165.155388,43.9677995 L166.719298,48.9621596 C167.250627,50.2645902 166.348371,51.9669799 165.536341,51.9669799 Z M158.26817,43.3012012 L158.699248,42.5320492 L161.536341,35.7019798 L162.879699,38.9324181 L164.614035,43.3012012 L158.26817,43.3012012 Z" id="Shape" fill="#005051"></path>
                    <path d="M124.959386,9.61057281 C123.4523,9.26246859 121.915631,9.0582569 120.370022,9.00068126 L119.882656,9.00068126 C119.224886,8.99494081 118.567299,9.02548166 117.912885,9.092165 C116.987923,9.19341825 116.069307,9.34612726 115.161297,9.54958366 C113.635972,9.92265557 112.160195,10.475414 110.764849,11.1962909 C109.573412,11.845709 108.453722,12.6191288 107.424361,13.5037139 C106.370763,14.4321182 105.42401,15.4753975 104.601699,16.6141608 C104.439244,16.8682823 104.226021,17.2342172 103.951878,17.6306467 C103.860497,17.7729548 103.769116,18.0169114 103.687888,18.1490546 C103.60666,18.2811977 103.525433,18.7589461 103.454358,18.7589461 L103.454358,18.7589461 C102.81469,20.4056533 103.027913,20.7919179 103.058373,20.9647206 C103.383721,21.6437867 103.885142,22.2229988 104.510318,22.6419223 C106.134178,23.7883388 108.149392,24.2350396 110.104874,23.8820351 C110.632729,23.8132771 111.155191,23.7079881 111.668507,23.5669245 C112.166027,23.4144516 112.683853,23.2009896 113.20168,23.028187 C113.719506,22.8553844 114.217026,22.5402737 114.714545,22.2963171 C115.212065,22.0523605 115.66897,21.6864256 116.13603,21.3611501 C116.895525,20.7884133 117.6054,20.1525487 118.258103,19.4603214 C118.93877,18.7425811 119.572959,17.9820573 120.1568,17.1833929 C120.430943,16.817458 120.694933,16.4413582 120.958923,16.0550936 C121.750893,14.8556402 122.481942,13.6155273 123.223145,12.3855794 C123.588669,11.7756878 123.954194,11.1657963 124.370485,10.5863993 C124.55912,10.2963322 124.769568,10.0210835 125,9.7630457 L124.959386,9.61057281 Z" id="Path" fill="#72C1AC"></path>
                    <polygon id="Path" fill="#65B5AA" points="103.5 20.495 103.5 20.505 103.5 20.495"></polygon>
                    <path d="M100.554013,6.29023256 C100.193884,5.60725171 99.7805905,4.95375653 99.3179709,4.33581395 L99.3179709,4.33581395 C98.8303175,3.69527519 98.28677,3.09944054 97.6937496,2.55534884 L97.5098755,2.39162791 L97.3464319,2.23813953 L97.1932034,2.11534884 L97.1319121,2.06418605 C96.7480707,1.73922811 96.3418621,1.44174822 95.9162999,1.17395349 L95.8447934,1.17395349 L95.8447934,1.17395349 C95.7313037,1.10490576 95.6116025,1.04666651 95.4872604,1 C95.4872604,1.1227907 95.3851081,1.57302326 95.2829558,2.29953488 C95.2829558,2.29953488 95.2829558,2.39162791 95.2829558,2.43255814 C95.2829558,2.47348837 95.2829558,2.71906977 95.2829558,2.8827907 C95.2339173,3.39172032 95.155469,3.89737464 95.0480056,4.3972093 C95.0480056,4.3972093 95.0480056,4.3972093 95.0480056,4.3972093 C95.0011898,4.6438215 94.9363181,4.88664792 94.8539162,5.12372093 C94.6310652,5.77559459 94.3718719,6.41442827 94.0775589,7.0372093 L94.0775589,7.0372093 L93.679165,7.90697674 C93.1354521,8.9935397 92.7008724,10.1315336 92.3818311,11.304186 C92.0640812,12.6437703 91.9436288,14.0227042 92.0242981,15.3972093 C92.0242981,15.7553488 92.1162352,16.1134884 92.1570961,16.492093 C92.2216644,16.8581929 92.3069285,17.2203258 92.4124768,17.5767442 C92.6111886,18.3200275 92.9029342,19.0351573 93.2807711,19.7051163 C93.9999572,20.9677582 94.9825242,22.0601881 96.1614654,22.907907 L96.1614654,22.907907 C96.1614654,22.907907 96.1614654,22.907907 96.1614654,22.907907 C96.1614654,22.907907 96.2431872,22.9590698 96.2840482,23 L96.2840482,23 L96.6211507,22.6111628 L96.7028725,22.5293023 C96.8969618,22.3144186 97.0808359,22.0995349 97.26471,21.8744186 L97.7243953,21.3218605 C99.5144159,19.1836063 100.855514,16.705674 101.667473,14.0362791 C102.361362,11.4099081 101.959436,8.61381216 100.554013,6.29023256 Z" id="Path" fill="#7AB94C"></path>
                    <rect id="Rectangle" fill="#005051" x="158" y="42" width="4" height="1"></rect>
                    <path d="M103,10.3089467 L103,10.8765976 C102.977984,11.6499111 102.871912,12.4182904 102.683752,13.1674747 C101.792954,16.4615846 100.146025,19.4890021 97.8807389,21.9964742 L97.2284778,22.7364478 L97.0703539,22.918907 L97.0011747,23 L96.7837543,22.8580873 L96.7046924,22.8580873 C95.2776283,21.9063357 94.0946698,20.6165018 93.2556149,19.0973997 C92.8682795,18.377824 92.5695136,17.6117216 92.366168,16.8166593 C92.2635124,16.4335349 92.1842961,16.0442058 92.1289821,15.6509476 C92.0698972,15.2681317 92.0303125,14.8824164 92.0103892,14.4953724 C91.9564118,13.0603916 92.1129899,11.6252382 92.4748782,10.2379903 C92.8201275,9.05515363 93.2872524,7.9134089 93.868345,6.83208462 L94.1252963,6.31511679 C94.5206061,5.52446011 94.8665021,4.79462318 95.1135707,4.12560599 C95.1728671,3.96342001 95.2222809,3.80123402 95.2716946,3.64918466 C95.3211083,3.4971353 95.2716946,3.5376818 95.2716946,3.48699868 C95.4279862,2.96401259 95.556649,2.43275688 95.6571216,1.8955487 L95.716418,1.52049361 C95.79548,1.0542089 95.8646592,0.69942706 95.9239556,0.456148083 C95.9239556,0.263552226 96.0030176,0.141912737 96.0129003,0.0810929925 C96.0227831,0.0202732481 96.0129003,0.263552226 95.9536039,0.466284707 C95.8943074,0.669017188 95.8646592,1.06434553 95.8152455,1.47994711 C95.8152455,1.47994711 95.8152455,1.47994711 95.8152455,1.47994711 L95.8152455,1.86513883 C95.755949,2.31115029 95.7065353,2.82811811 95.5879424,3.39576906 C95.5913464,3.44977468 95.5913464,3.50394942 95.5879424,3.55795505 C95.5879424,3.74041428 95.4989977,3.92287351 95.4397012,4.11546937 C95.1107539,5.0685462 94.7313514,6.0025038 94.3031857,6.91317761 C93.7864754,7.99272631 93.3791489,9.12381736 93.0876083,10.2886734 C92.7826798,11.6160294 92.6727568,12.9826567 92.7614777,14.343323 C92.7614777,14.6981049 92.8504224,15.0528867 92.8998361,15.4279418 C92.9632461,15.7913158 93.0490689,16.1501974 93.1567875,16.502424 C93.3578353,17.238796 93.6466123,17.9469414 94.0165861,18.6108418 C94.6935629,19.804411 95.60571,20.8401078 96.6948096,21.651829 L96.8232853,21.7430586 L96.8232853,21.7430586 L96.8232853,21.7430586 L96.9221127,21.814015 L96.9221127,21.814015 L97.1098849,21.5910093 C97.1790641,21.5200529 97.2383605,21.4389599 97.3075397,21.3578669 L97.5447256,21.0841781 C99.6118388,18.7535504 101.153752,15.9850187 102.061139,12.9748788 C102.759535,10.3820852 102.402937,7.6096288 101.072865,5.29131776 C100.750737,4.6912309 100.387456,4.11537289 99.9857632,3.56809167 L99.877053,3.40590569 C99.3537574,2.71251527 98.7681018,2.07108911 98.1278074,1.49008374 C98.1278074,1.49008374 98.1278074,1.49008374 98.068511,1.49008374 L97.6336703,1.14543852 C97.3964844,0.952842662 97.1790641,0.780520053 96.9912919,0.64874394 C96.8690347,0.548629176 96.7402599,0.457187196 96.6058649,0.37505509 L96.447741,0.27368885 L96.0227831,0 L96.4675065,0.243278978 C96.899406,0.481644318 97.3153964,0.749163965 97.7127322,1.04407228 L98.2562831,1.46981049 L98.3155796,1.46981049 C98.9997754,2.04536118 99.6285626,2.68690707 100.193301,3.38563244 L100.311894,3.54781842 C100.695235,4.02896631 101.04528,4.53703842 101.359465,5.06831203 C102.02405,6.18275403 102.504875,7.40199685 102.78258,8.6769502 C102.857799,9.01118963 102.913897,9.34965488 102.950586,9.6906126 C102.970352,9.94402821 102.980235,10.1264874 103,10.3089467 Z" id="Path" fill="#005051"></path>
                    <path d="M127.535,9.5 L127.465,9.5 L127.535,9.5 Z" id="Path" fill="#3A5949"></path>
                    <path d="M99.9913607,12.037702 C99.9913607,13.1414722 99.8540917,14.2660682 99.7062635,15.4010772 C99.5584353,16.5360862 99.3894888,17.691921 99.1677466,18.8477558 C98.4476204,22.6500714 97.3875671,26.3820535 96,30 C96,29.7709156 96,29.5418312 96,29.3127469 C97.2115606,25.8802555 98.1368029,22.3559115 98.7664987,18.7748654 C98.9776818,17.6398564 99.1360691,16.4944345 99.2416607,15.3594255 C99.3472522,14.2244165 99.3894888,13.1102334 99.4211663,12.027289 C99.4528438,10.9443447 99.4211663,9.94470377 99.4211663,8.90341113 C99.4211663,7.86211849 99.2944564,6.97701975 99.1888649,6.12315978 C99.0860905,5.34409289 98.9344519,4.57205638 98.7348212,3.81149013 C98.5810424,3.23123722 98.3724674,2.66647065 98.1118311,2.12459605 L97.974562,1.89551167 C97.9722115,1.86779224 97.9722115,1.83992769 97.974562,1.81220826 C97.8061901,1.5297188 97.6192452,1.25840253 97.4149268,1 L97.562755,1.07289048 C97.9004884,1.31951467 98.1752605,1.64039657 98.3652508,2.01005386 C98.6740007,2.55210271 98.9150943,3.12900789 99.0832733,3.72818671 C99.3233822,4.49085955 99.5034229,5.27067531 99.6217903,6.06068223 C99.7766123,6.99181294 99.882346,7.93023746 99.9385649,8.87217235 C99.9948804,9.88569719 100.012479,10.9408737 99.9913607,12.037702 Z" id="Path" fill="#005051"></path>
                    <path d="M106.182842,16.579235 L106.182842,16.579235 C107.912125,14.2839135 110.117745,12.4167799 112.63796,11.1147541 C114.117244,10.3811109 115.675646,9.83082487 117.280556,9.47540984 C118.011924,9.33333333 118.764492,9.20218579 119.548857,9.12568306 L120.153031,9.07103825 C120.672408,9.07103825 121.212984,9.01639344 121.711163,9.07103825 L122.21994,9.07103825 L122.728718,9.07103825 C124.077761,9.16637858 125.417437,9.37101738 126.735343,9.68306011 L127.339516,9.83606557 L126.767141,9.89071038 L126.544551,9.89071038 C126.10997,9.94535519 125.590593,10.0218579 125.018218,10.1530055 C124.689632,10.2185792 124.329248,10.3169399 123.958264,10.4043716 C123.587281,10.4918033 123.195098,10.6120219 122.792315,10.7540984 C122.389533,10.8961749 122.082146,10.9836066 121.732362,11.1256831 C121.382577,11.2677596 120.767804,11.4972678 120.259026,11.715847 L119.570056,12.0218579 C118.891686,12.3169399 118.202716,12.6448087 117.450149,12.9945355 C116.50679,13.4644809 115.542233,13.9672131 114.567075,14.4918033 L113.104339,15.2896175 L112.733355,15.4972678 L112.362372,15.704918 L111.631004,16.1202186 L110.168268,16.9945355 L108.758529,17.8907104 C107.82577,18.5027322 106.92481,19.136612 106.076847,19.7704918 C105.652865,20.0874317 105.239483,20.4153005 104.836701,20.7322404 L104.211328,21.2459016 C103.681351,19.4754098 106.013249,16.7759563 106.182842,16.579235 Z M126.830739,10.8852459 C126.364359,11.5081967 125.972176,12.1420765 125.569394,12.7868852 C124.763829,14.0874317 123.958264,15.3989071 123.089102,16.6666667 C122.813514,17.0601093 122.516727,17.4644809 122.23054,17.8469945 L121.721762,18.4918033 C121.223584,19.1038251 120.661809,19.6830601 120.16363,20.2404372 L119.559457,20.8306011 C119.031126,21.3225146 118.475477,21.7823084 117.89533,22.2076503 C117.397151,22.5464481 116.835376,22.852459 116.379596,23.1693989 C115.923816,23.4863388 115.319642,23.6939891 114.789665,23.9016393 C114.259689,24.1092896 113.729712,24.284153 113.167936,24.4371585 L112.913548,24.5027322 C112.454876,24.6014337 111.991348,24.6744007 111.525008,24.7213115 C109.474552,25.0374858 107.386658,24.4943704 105.727062,23.2131148 C105.228816,22.8562058 104.794792,22.4123912 104.444518,21.9016393 C105.087557,21.3843352 105.765927,20.870674 106.479629,20.3606557 L107.126201,19.9016393 L107.793972,19.442623 L109.150712,18.5355191 C109.617092,18.2185792 110.094071,17.9453552 110.56045,17.6393443 L111.991388,16.7759563 L112.722756,16.3606557 L113.08314,16.1530055 L113.454124,15.9453552 L114.90626,15.136612 C115.870818,14.6010929 116.824776,14.0437158 117.757536,13.6065574 L119.559457,12.6994536 L120.460417,12.273224 C120.894998,12.0874317 121.30838,11.8907104 121.721762,11.726776 C122.135144,11.5628415 122.559126,11.3879781 122.951308,11.2459016 L123.523683,11.0382514 L124.085459,10.852459 L125.145412,10.5464481 C125.579993,10.4371585 125.972176,10.3387978 126.33256,10.273224 L126.851938,10.1748634 L127.48791,10.0765027 L127.48791,10.0765027 C127.253657,10.3325593 127.034221,10.6026071 126.830739,10.8852459 L126.830739,10.8852459 Z M128.950646,9.09289617 C126.952477,8.47067021 124.887802,8.10362829 122.802915,8 L121.742961,8 C121.212984,8 120.683008,8 120.184829,8.08743169 L119.580656,8.16393443 C118.753524,8.2660938 117.932554,8.41568808 117.121563,8.61202186 C115.466088,9.02379782 113.86722,9.64797409 112.362372,10.4699454 L111.747599,10.852459 L111.747599,10.852459 C109.339415,12.3605547 107.190373,14.2698639 105.387877,16.5027322 C105.175886,16.7650273 104.985094,17.0163934 104.815502,17.2677596 C104.13546,18.1980259 103.687732,19.286453 103.511759,20.4371585 L103.511759,20.4371585 C103.506488,20.5135647 103.506488,20.5902604 103.511759,20.6666667 L103.511759,20.9071038 L103.511759,20.9071038 C103.511759,20.9617486 103.511759,21.0054645 103.511759,21.0601093 C103.511759,21.1147541 103.638953,21.4754098 103.71315,21.6830601 L103.71315,21.6830601 C102.971183,22.3278689 102.282213,22.9398907 101.678039,23.5409836 L101.222259,23.9781421 L100.808877,24.4153005 L100.416694,24.8306011 C100.300099,24.9617486 100.183504,25.1038251 100.06691,25.2240437 L99.7277244,25.6065574 L99.4309374,25.9672131 C99.2401457,26.1967213 99.0599536,26.4153005 98.9115601,26.6120219 L98.5087777,27.147541 C98.4027824,27.3114754 98.3073866,27.442623 98.2225903,27.5519126 L98,27.8907104 L98.137794,28 L98.3921828,27.6830601 L98.6995694,27.3005464 L99.1235508,26.7978142 C99.2825439,26.6120219 99.4733355,26.4153005 99.6747267,26.1967213 L99.9821133,25.8469945 L100.331898,25.4972678 L100.713481,25.1256831 L101.116264,24.7322404 L101.540245,24.3278689 L102.006625,23.9125683 C102.600199,23.3661202 103.25737,22.8196721 103.967539,22.2295082 C104.290365,22.8174131 104.701819,23.3486384 105.186486,23.8032787 C106.973996,25.2901667 109.263722,25.9787594 111.546207,25.715847 C112.148728,25.6736581 112.747439,25.5859916 113.337529,25.4535519 C113.941703,25.3005464 114.514078,25.0928962 115.118251,24.9071038 C115.722425,24.7213115 116.263001,24.4043716 116.845975,24.1420765 C117.42895,23.8797814 117.905929,23.4972678 118.488904,23.1256831 C118.838688,22.8852459 119.177873,22.6229508 119.548857,22.3497268 C119.919841,22.0765027 119.95164,22.010929 120.153031,21.8360656 C120.693607,21.3442623 121.212984,20.8306011 121.711163,20.284153 L122.21994,19.715847 C122.866512,18.9617486 123.470686,18.1639344 124.05366,17.3442623 C124.954621,16.0218579 125.760185,14.6885246 126.544551,13.3989071 C127.202121,12.177518 128.04279,11.0709692 129.035442,10.1202186 L130,9.3989071 L128.950646,9.09289617 Z" id="Shape" fill="#005051"></path>
                    <path d="M28.9800051,62.3252832 C29.0217598,61.6133337 28.9980856,60.8989818 28.9092897,60.1914939 C28.9092897,60.1914939 28.9092897,60.1914939 28.9092897,60.1914939 C28.9092897,60.1914939 28.9092897,60.1914939 28.9092897,60.1914939 C28.9127694,60.1368384 28.9127694,60.0820118 28.9092897,60.0273563 C28.9092897,59.9658047 28.9092897,60.0273563 28.9092897,60.0273563 L28.9092897,60.0273563 L28.3536689,60.0273563 L28.0708074,60.0273563 C27.6768217,60.0273563 27.282836,60.0273563 26.8989525,60.0991665 C24.052254,60.2473385 21.2664153,60.9912529 18.7161731,62.2842488 C18.1408261,62.5628571 17.5985563,62.907023 17.0998216,63.310109 C15.6133612,64.5641621 14.4921394,66.2064143 13.8570165,68.0598418 C13.8570165,68.1932037 13.7660967,68.3265655 13.7256879,68.4599273 C13.4867197,69.1967881 13.3043343,69.9513438 13.1801693,70.7168198 C13.1801693,70.9938021 13.0993517,71.2707844 13.0690451,71.5272494 C13.0387385,71.7837145 13.0690451,72.0094037 13.0185341,72.2453516 C12.993822,72.6621573 12.993822,73.0800953 13.0185341,73.496901 C13.0185341,73.6712973 13.0185341,73.8456935 13.0185341,73.9995726 C13.0516063,74.5159924 13.1157062,75.0298791 13.2104759,75.5383629 L13.2104759,75.5383629 L13.2104759,75.5383629 C13.2381539,75.697709 13.2856789,75.8528329 13.3519066,76 C13.4630308,75.9281898 13.8873231,75.6512075 14.5439658,75.148536 L14.9076449,74.8818124 C15.2925635,74.5724874 15.6938857,74.2848152 16.1098064,74.0200898 C16.3118503,73.8867279 16.5340986,73.7738833 16.7664491,73.6507801 L17.5342161,73.3225048 C18.1807567,73.0660398 18.8980127,72.8198333 19.6556774,72.5633682 C20.1607873,72.3992306 20.6658971,72.2145758 21.2316201,71.9991451 C21.8542949,71.7692093 22.4588094,71.4914228 23.0399134,71.1681983 C24.2465655,70.4616019 25.342888,69.5764968 26.2928207,68.5419962 C26.5453757,68.2752725 26.767624,67.9675144 27.0100767,67.6802736 C27.2328786,67.3741974 27.4386126,67.0556813 27.6263107,66.7262236 C28.0259281,66.0525622 28.3447297,65.332763 28.5759172,64.5821757 C28.7985611,63.8488845 28.9342166,63.0912278 28.9800051,62.3252832 L28.9800051,62.3252832 Z" id="Path" fill="#FCC646"></path>
                    <path d="M28.5748993,65.235607 C28.3206367,65.9950545 27.9606534,66.7226281 27.5034881,67.4010695 C27.2828934,67.7328128 27.0432897,68.0540537 26.7856427,68.3634973 C26.5070758,68.6522256 26.2606513,68.9602025 25.9713703,69.2104337 C24.8962471,70.2139154 23.6570155,71.0642144 22.2964302,71.7319944 C21.8147353,71.9649016 21.3173509,72.1706182 20.8071688,72.3479482 L19.8214705,72.6655494 L18.5786337,73.0120234 C17.8929306,73.1948846 17.260798,73.3681216 16.6715219,73.5413586 L15.8572495,73.8012141 L15.525112,73.9167055 L14.8715513,74.1958095 C14.374441,74.4430431 13.8916799,74.7128728 13.4251463,75.0042488 L13.0394383,75.2448558 C12.2573082,75.7068211 11.7644591,75.947428 11.6787462,75.9955494 C11.5930333,76.0436708 12.2037376,75.6971968 12.9751536,75.1678616 L13.3394334,74.9080061 C13.7796765,74.598278 14.2374206,74.3091652 14.7108396,74.0418211 C14.9320211,73.9178096 15.1609676,73.8053403 15.3965427,73.7049714 L15.3965427,73.7049714 C15.6108249,73.6087286 15.8465354,73.5221101 16.0822458,73.4354916 C16.7893771,73.1660118 17.5822213,72.9157806 18.4393502,72.6559251 L18.9321993,72.4923124 L19.9071834,72.1747112 C20.6480444,71.9268243 21.3647698,71.6242287 22.0500056,71.2700291 C23.3227672,70.598809 24.4750874,69.7583931 25.4678071,68.7773412 C25.7356598,68.5174857 25.9606562,68.2287574 26.2070807,67.9592776 C26.4535053,67.6897978 26.6677875,67.3721967 26.8606415,67.0545955 C27.2761948,66.4157475 27.6035991,65.7338211 27.8356256,65.0238729 C28.249795,63.6798916 28.3338767,62.2711132 28.0820501,60.8950578 L28.0820501,60.8950578 C28.0820501,60.8950578 28.0820501,60.8180636 28.0820501,60.7795665 L28.0820501,60.7795665 L27.4499176,60.7795665 C23.9051341,60.8259362 20.4180325,61.5925835 17.2500839,63.0220232 C17.0358017,63.118266 16.8215195,63.224133 16.6179514,63.3396243 L16.489382,63.4069943 C15.3845205,64.0449118 14.43061,64.8723562 13.6822849,65.8419365 L13.6822849,65.8419365 C12.9615516,66.76933 12.398264,67.7877977 12.0108836,68.8639597 C11.7639461,69.5555986 11.5776657,70.2635418 11.4537498,70.9813008 C11.3091542,71.8474489 11.2589173,72.7241979 11.3037523,73.5991043 C11.292428,73.7561363 11.292428,73.9136619 11.3037523,74.0706939 C11.338226,74.5531272 11.4134411,75.0325118 11.5287486,75.5047113 C11.5823192,75.7549425 11.6251756,75.9089309 11.6358897,75.9763009 C11.6466038,76.0436708 11.560891,75.7549425 11.4858922,75.5143356 C11.3394485,75.0473827 11.2320089,74.5712624 11.1644688,74.0899425 C11.1644688,73.8878326 11.1001842,73.65685 11.078756,73.416243 C10.973748,72.5140197 10.973748,71.6044201 11.078756,70.7021967 C11.1664929,70.0531352 11.3025091,69.4100785 11.4858922,68.7773412 C11.8406516,67.5603877 12.4201079,66.4054967 13.2001499,65.3607226 C13.4096735,65.0670015 13.6424113,64.7871776 13.8965672,64.5234105 L13.8965672,64.5234105 L14.2822752,64.1191908 L14.7215537,63.743844 C15.292693,63.2806632 15.9177172,62.874098 16.585809,62.531185 L16.7143784,62.4638151 L16.7143784,62.4638151 C19.9567828,60.901468 23.56746,60.0567979 27.2463495,60 L28.3177606,60 L28.6927545,60 L28.7570391,60.3368497 C29.1340182,61.959302 29.0715521,63.6393651 28.5748993,65.235607 L28.5748993,65.235607 Z" id="Path" fill="#005051"></path>
                    <path d="M36,56.1095133 L35.679163,56.199115 L35.288143,56.2986726 L34.7768091,56.4579646 C34.3958152,56.5774336 33.934612,56.7466814 33.413252,56.9557522 L32.6011334,57.324115 C32.320401,57.4634956 32.0196164,57.6028761 31.7188317,57.7721239 C31.0972101,58.0807522 30.4655623,58.4690265 29.7837838,58.8772124 C29.1020052,59.2853982 28.4202267,59.7632743 27.7083697,60.2610619 C26.9965126,60.7588496 26.2646033,61.2566372 25.532694,61.8141593 L24.4298169,62.6205752 L24.1490846,62.829646 L23.8683522,63.0387168 L23.3169137,63.4568584 C22.9459459,63.7356195 22.5950305,64.0243363 22.2340889,64.3030973 L21.141238,65.1792035 L20.1386225,66.0553097 L19.136007,66.9413717 C18.5043592,67.5188053 17.912816,68.1061947 17.3613775,68.6736726 C16.809939,69.2411504 16.3387097,69.7887168 15.8875327,70.3064159 L15.5566696,70.6946903 C15.4463819,70.8141593 15.3461203,70.9435841 15.2458588,71.0630531 L14.9551003,71.4214602 L14.6843941,71.7599558 L14.4337402,72.0785398 C14.3635571,72.1880531 14.2833479,72.2876106 14.2131648,72.3871681 C14.1429817,72.4867257 13.9424586,72.7654867 13.8321709,72.9347345 L13.5313862,73.3827434 L13.320837,73.7112832 L13.1503923,74 L13,73.920354 C13,73.920354 13,73.8108407 13.1503923,73.6216814 L13.3308631,73.2632743 L13.6015693,72.795354 C13.7018309,72.6161504 13.8221447,72.4269912 13.9524847,72.2179204 L14.163034,71.8893805 L14.3936356,71.550885 L14.6442895,71.1825221 C14.7244987,71.0630531 14.8247602,70.9336283 14.9149956,70.8141593 L15.2057541,70.4159292 C15.3160418,70.2865044 15.4163034,70.1471239 15.5265911,70.0077434 C15.9577158,69.460177 16.4590235,68.8926991 16.9904098,68.295354 C17.261116,68.0066372 17.5418483,67.6980088 17.8326068,67.3993363 C18.1233653,67.1006637 18.4341761,66.7920354 18.7550131,66.4933628 C19.3766347,65.8860619 20.0483871,65.2787611 20.7602441,64.6814159 L21.8230166,63.795354 L22.9258936,62.9292035 L23.4873583,62.5210177 L23.7680907,62.3019912 L24.048823,62.1028761 L25.1517001,61.3462389 C25.9070038,60.8086283 26.6489393,60.300885 27.3775065,59.8230088 C28.0993897,59.335177 28.8212729,58.8871681 29.5130776,58.4889381 C30.2048823,58.090708 30.8766347,57.7223451 31.5183086,57.4236726 C31.8291194,57.2643805 32.1499564,57.1449115 32.4407149,57.0154867 C32.7314734,56.8860619 33.0222319,56.7865044 33.2929381,56.6969027 C33.8343505,56.5077434 34.2955536,56.3683628 34.706626,56.2588496 L35.2380122,56.1393805 L35.6390584,56.0597345 L35.9699215,56 L36,56.1095133 Z" id="Path" fill="#005051"></path>
                </g>
            </g>
        </g>
    </g>
</svg>